M48
; DRILL file {KiCad 8.0.3-8.0.3-0~ubuntu20.04.1} date 2025-01-28T05:51:24-0300
; FORMAT={-:-/ absolute / metric / decimal}
; #@! TF.CreationDate,2025-01-28T05:51:24-03:00
; #@! TF.GenerationSoftware,Kicad,Pcbnew,8.0.3-8.0.3-0~ubuntu20.04.1
; #@! TF.FileFunction,Plated,1,2,PTH
FMAT,2
METRIC
; #@! TA.AperFunction,Plated,PTH,ViaDrill
T1C0.300
; #@! TA.AperFunction,Plated,PTH,ViaDrill
T2C0.400
; #@! TA.AperFunction,Plated,PTH,ComponentDrill
T3C0.800
; #@! TA.AperFunction,Plated,PTH,ComponentDrill
T4C1.000
; #@! TA.AperFunction,Plated,PTH,ComponentDrill
T5C1.200
%
G90
G05
T1
X50.8Y-60.55
X50.95Y-54.73
X51.025Y-88.975
X51.675Y-97.475
X52.025Y-105.7
X52.175Y-120.875
X52.175Y-137.1
X52.25Y-142.9
X52.275Y-96.275
X52.6Y-83.45
X53.125Y-114.6
X54.55Y-126.0
X54.95Y-144.4
X55.65Y-74.55
X56.1Y-149.025
X56.22Y-70.93
X56.55Y-63.75
X56.75Y-114.425
X57.0Y-89.0
X57.05Y-130.45
X57.8Y-89.2
X57.925Y-137.575
X58.575Y-134.65
X58.625Y-109.475
X59.325Y-128.55
X59.55Y-82.8
X60.5Y-76.85
X60.8Y-74.45
X61.35Y-110.325
X61.45Y-87.2
X62.275Y-127.775
X62.35Y-89.675
X62.4Y-79.2
X62.625Y-115.55
X62.675Y-83.025
X63.3Y-135.425
X64.2Y-145.075
X65.05Y-129.025
X65.55Y-124.475
X66.04Y-51.67
X66.15Y-62.25
X66.175Y-148.85
X66.46Y-54.61
X66.65Y-57.25
X67.6Y-88.25
X68.475Y-88.725
X68.6Y-134.9
X70.3Y-110.025
X70.5Y-106.5
X71.725Y-130.85
X71.75Y-63.95
X71.825Y-126.575
X72.3Y-74.4
X72.35Y-70.62
X72.7Y-89.275
X73.0Y-82.65
X74.0Y-106.5
X74.05Y-110.45
X74.15Y-87.475
X74.475Y-100.05
X74.75Y-82.6
X75.025Y-112.03
X75.45Y-96.25
X75.525Y-103.3
X76.45Y-76.6
X76.55Y-148.25
X76.825Y-112.3
X77.175Y-138.675
X77.996Y-108.902
X78.45Y-79.25
X79.2Y-62.8
X81.4Y-109.375
X82.1Y-144.175
X82.575Y-107.15
X82.66Y-55.35
X82.7Y-59.55
X83.7Y-102.575
X83.7Y-104.95
X84.575Y-87.075
X84.7Y-111.475
X84.75Y-100.95
X85.55Y-86.85
X85.925Y-135.775
X86.675Y-138.625
X87.3Y-134.55
X87.65Y-128.725
X87.9Y-97.7
X87.95Y-64.25
X88.6Y-73.7
X88.65Y-69.1
X88.8Y-87.775
X89.2Y-104.175
X89.6Y-80.5
X89.7Y-82.7
X89.85Y-142.45
X90.125Y-87.025
X90.4Y-145.475
X90.45Y-76.8
X91.0Y-127.65
X91.543Y-97.835
X91.6Y-111.525
X91.65Y-136.775
X91.825Y-124.575
X92.075Y-89.675
X92.45Y-82.9
X92.713Y-95.125
X92.95Y-74.0
X93.75Y-75.9
X93.94Y-54.92
X93.963Y-104.195
X94.05Y-140.45
X94.55Y-79.15
X95.3Y-77.25
X95.35Y-62.8
X95.95Y-109.55
X95.975Y-88.4
X96.05Y-143.713
X96.375Y-138.75
X96.575Y-124.475
X98.1Y-135.475
X98.375Y-142.25
X98.602Y-51.545
X98.675Y-145.475
X98.7Y-59.55
X98.75Y-82.75
X99.05Y-88.125
X99.325Y-111.975
X100.0Y-142.0
X100.063Y-97.255
X100.5Y-104.365
X101.127Y-106.278
X101.4Y-128.225
X101.5Y-141.0
X101.627Y-107.5
X102.025Y-137.7
X102.127Y-109.0
X102.2Y-122.25
X102.9Y-88.775
X103.025Y-142.075
X103.125Y-101.2
X103.35Y-116.775
X103.413Y-96.865
X103.69Y-55.1
X103.85Y-64.5
X104.7Y-69.05
X104.7Y-75.05
X104.7Y-80.9
X104.8Y-124.25
X105.35Y-78.85
X105.513Y-99.975
X108.75Y-76.1
X108.9Y-92.875
X108.925Y-137.725
X109.725Y-104.575
X109.854Y-101.854
X110.45Y-77.35
X110.5Y-103.0
X110.68Y-54.55
X110.8Y-79.25
X112.0Y-142.975
X112.05Y-83.6
X112.275Y-90.6
X112.8Y-61.45
X113.0Y-141.0
X113.575Y-144.3
X113.81Y-60.66
T2
X61.0Y-126.0
X67.0Y-143.5
T3
X51.42Y-93.0
X51.423Y-118.396
X53.96Y-93.0
X53.963Y-118.396
X56.5Y-93.0
X56.5Y-118.4
X59.04Y-93.0
X59.04Y-118.4
X61.58Y-93.0
X61.58Y-118.4
X64.12Y-93.0
X64.12Y-118.4
X66.66Y-93.0
X66.66Y-118.4
X69.2Y-93.0
X69.2Y-118.4
X71.74Y-93.0
X71.74Y-118.4
X74.28Y-93.0
X74.28Y-118.4
X76.82Y-93.0
X76.82Y-118.4
X79.36Y-93.0
X79.36Y-118.4
X81.9Y-93.0
X81.9Y-118.4
X84.44Y-93.0
X84.44Y-118.4
X86.98Y-93.0
X86.98Y-118.4
X89.52Y-93.0
X89.52Y-118.4
X92.06Y-93.0
X92.06Y-118.4
X94.6Y-93.0
X94.6Y-118.4
X97.14Y-93.0
X97.14Y-118.4
T4
X52.0Y-63.11
X52.0Y-65.65
X52.0Y-68.19
X52.0Y-70.73
X52.0Y-73.27
X52.0Y-75.81
X52.0Y-78.35
X52.0Y-80.89
X58.225Y-72.25
X58.225Y-74.75
X64.7Y-63.11
X64.7Y-65.65
X64.7Y-68.19
X64.7Y-70.73
X64.7Y-73.27
X64.7Y-75.81
X64.7Y-78.35
X64.7Y-80.89
X68.1Y-63.11
X68.1Y-65.65
X68.1Y-68.19
X68.1Y-70.73
X68.1Y-73.27
X68.1Y-75.81
X68.1Y-78.35
X68.1Y-80.89
X74.7Y-72.25
X74.7Y-74.75
X80.8Y-63.11
X80.8Y-65.65
X80.8Y-68.19
X80.8Y-70.73
X80.8Y-73.27
X80.8Y-75.81
X80.8Y-78.35
X80.8Y-80.89
X84.2Y-63.11
X84.2Y-65.65
X84.2Y-68.19
X84.2Y-70.73
X84.2Y-73.27
X84.2Y-75.81
X84.2Y-78.35
X84.2Y-80.89
X91.0Y-72.25
X91.0Y-74.75
X92.0Y-133.0
X92.46Y-148.0
X94.54Y-133.0
X95.0Y-126.5
X95.0Y-148.0
X96.9Y-63.11
X96.9Y-65.65
X96.9Y-68.19
X96.9Y-70.73
X96.9Y-73.27
X96.9Y-75.81
X96.9Y-78.35
X96.9Y-80.89
X97.08Y-133.0
X97.54Y-126.5
X99.62Y-133.0
X100.08Y-126.5
X100.3Y-63.11
X100.3Y-65.65
X100.3Y-68.19
X100.3Y-70.73
X100.3Y-73.27
X100.3Y-75.81
X100.3Y-78.35
X100.3Y-80.89
X102.16Y-133.0
X102.62Y-126.5
X104.7Y-133.0
X107.0Y-72.25
X107.0Y-74.75
X107.24Y-133.0
X109.78Y-133.0
X113.0Y-63.11
X113.0Y-65.65
X113.0Y-68.19
X113.0Y-70.73
X113.0Y-73.27
X113.0Y-75.81
X113.0Y-78.35
X113.0Y-80.89
T5
X53.4Y-57.5
X54.0Y-123.5
X54.0Y-128.5
X56.9Y-57.5
X60.4Y-57.5
X63.9Y-57.5
X69.433Y-57.5
X72.933Y-57.5
X76.433Y-57.5
X79.933Y-57.5
X85.467Y-57.5
X88.967Y-57.5
X92.467Y-57.5
X95.967Y-57.5
X101.5Y-57.5
X105.0Y-57.5
X108.5Y-57.5
X112.0Y-57.5
T4
X58.0Y-102.457G85X58.0Y-104.457
G05
X60.0Y-98.757G85X62.0Y-98.757
G05
X64.0Y-102.457G85X64.0Y-104.457
G05
M30
