G04 #@! TF.GenerationSoftware,KiCad,Pcbnew,8.0.3-8.0.3-0~ubuntu20.04.1*
G04 #@! TF.CreationDate,2025-01-28T05:51:00-03:00*
G04 #@! TF.ProjectId,syringe_pump,73797269-6e67-4655-9f70-756d702e6b69,rev?*
G04 #@! TF.SameCoordinates,Original*
G04 #@! TF.FileFunction,Paste,Top*
G04 #@! TF.FilePolarity,Positive*
%FSLAX46Y46*%
G04 Gerber Fmt 4.6, Leading zero omitted, Abs format (unit mm)*
G04 Created by KiCad (PCBNEW 8.0.3-8.0.3-0~ubuntu20.04.1) date 2025-01-28 05:51:00*
%MOMM*%
%LPD*%
G01*
G04 APERTURE LIST*
G04 Aperture macros list*
%AMRoundRect*
0 Rectangle with rounded corners*
0 $1 Rounding radius*
0 $2 $3 $4 $5 $6 $7 $8 $9 X,Y pos of 4 corners*
0 Add a 4 corners polygon primitive as box body*
4,1,4,$2,$3,$4,$5,$6,$7,$8,$9,$2,$3,0*
0 Add four circle primitives for the rounded corners*
1,1,$1+$1,$2,$3*
1,1,$1+$1,$4,$5*
1,1,$1+$1,$6,$7*
1,1,$1+$1,$8,$9*
0 Add four rect primitives between the rounded corners*
20,1,$1+$1,$2,$3,$4,$5,0*
20,1,$1+$1,$4,$5,$6,$7,0*
20,1,$1+$1,$6,$7,$8,$9,0*
20,1,$1+$1,$8,$9,$2,$3,0*%
G04 Aperture macros list end*
%ADD10RoundRect,0.200000X-0.275000X0.200000X-0.275000X-0.200000X0.275000X-0.200000X0.275000X0.200000X0*%
%ADD11RoundRect,0.250000X0.475000X-0.250000X0.475000X0.250000X-0.475000X0.250000X-0.475000X-0.250000X0*%
%ADD12RoundRect,0.225000X0.250000X-0.225000X0.250000X0.225000X-0.250000X0.225000X-0.250000X-0.225000X0*%
%ADD13RoundRect,0.200000X0.200000X0.275000X-0.200000X0.275000X-0.200000X-0.275000X0.200000X-0.275000X0*%
%ADD14RoundRect,0.200000X-0.200000X-0.275000X0.200000X-0.275000X0.200000X0.275000X-0.200000X0.275000X0*%
%ADD15RoundRect,0.225000X0.225000X0.250000X-0.225000X0.250000X-0.225000X-0.250000X0.225000X-0.250000X0*%
%ADD16RoundRect,0.250000X-0.250000X-0.475000X0.250000X-0.475000X0.250000X0.475000X-0.250000X0.475000X0*%
%ADD17RoundRect,0.250000X0.250000X0.475000X-0.250000X0.475000X-0.250000X-0.475000X0.250000X-0.475000X0*%
%ADD18RoundRect,0.250000X-2.050000X-0.300000X2.050000X-0.300000X2.050000X0.300000X-2.050000X0.300000X0*%
%ADD19RoundRect,0.250000X-2.025000X-2.375000X2.025000X-2.375000X2.025000X2.375000X-2.025000X2.375000X0*%
%ADD20RoundRect,0.218750X0.256250X-0.218750X0.256250X0.218750X-0.256250X0.218750X-0.256250X-0.218750X0*%
%ADD21RoundRect,0.150000X-0.512500X-0.150000X0.512500X-0.150000X0.512500X0.150000X-0.512500X0.150000X0*%
%ADD22RoundRect,0.250000X1.000000X-1.950000X1.000000X1.950000X-1.000000X1.950000X-1.000000X-1.950000X0*%
%ADD23R,2.900000X5.400000*%
%ADD24RoundRect,0.150000X-0.875000X-0.150000X0.875000X-0.150000X0.875000X0.150000X-0.875000X0.150000X0*%
%ADD25RoundRect,0.250000X-0.900000X1.500000X-0.900000X-1.500000X0.900000X-1.500000X0.900000X1.500000X0*%
%ADD26RoundRect,0.225000X-0.225000X-0.250000X0.225000X-0.250000X0.225000X0.250000X-0.225000X0.250000X0*%
%ADD27RoundRect,0.100000X0.637500X0.100000X-0.637500X0.100000X-0.637500X-0.100000X0.637500X-0.100000X0*%
%ADD28RoundRect,0.250000X-0.375000X-0.625000X0.375000X-0.625000X0.375000X0.625000X-0.375000X0.625000X0*%
G04 APERTURE END LIST*
D10*
X104000000Y-143562500D03*
X104000000Y-145212500D03*
D11*
X63225000Y-132475000D03*
X63225000Y-130575000D03*
D12*
X105162948Y-98360000D03*
X105162948Y-96810000D03*
D13*
X108775000Y-77950000D03*
X107125000Y-77950000D03*
D10*
X107932948Y-96690000D03*
X107932948Y-98340000D03*
D14*
X94350000Y-103095000D03*
X96000000Y-103095000D03*
D15*
X60550000Y-79750000D03*
X59000000Y-79750000D03*
D16*
X93050000Y-143500000D03*
X94950000Y-143500000D03*
D17*
X76700000Y-81400000D03*
X74800000Y-81400000D03*
D18*
X68500000Y-125400000D03*
X68500000Y-127100000D03*
X68500000Y-128800000D03*
D19*
X75225000Y-126025000D03*
X75225000Y-131575000D03*
X80075000Y-126025000D03*
X80075000Y-131575000D03*
D18*
X68500000Y-130500000D03*
X68500000Y-132200000D03*
D17*
X54450000Y-135500000D03*
X52550000Y-135500000D03*
D10*
X109542948Y-96730000D03*
X109542948Y-98380000D03*
D20*
X101000000Y-148625000D03*
X101000000Y-147050000D03*
D10*
X63500000Y-123975000D03*
X63500000Y-125625000D03*
D21*
X92862500Y-139550000D03*
X92862500Y-140500000D03*
X92862500Y-141450000D03*
X95137500Y-141450000D03*
X95137500Y-139550000D03*
D22*
X61000000Y-146700000D03*
X61000000Y-139300000D03*
D14*
X94350000Y-100095000D03*
X96000000Y-100095000D03*
D13*
X69950000Y-104475000D03*
X68300000Y-104475000D03*
D17*
X93150000Y-81350000D03*
X91250000Y-81350000D03*
D14*
X94350000Y-101595000D03*
X96000000Y-101595000D03*
X81700000Y-103400000D03*
X83350000Y-103400000D03*
D23*
X86950000Y-143500000D03*
X77050000Y-143500000D03*
D15*
X76325000Y-79600000D03*
X74775000Y-79600000D03*
D17*
X109050000Y-82900000D03*
X107150000Y-82900000D03*
D13*
X81750000Y-106875000D03*
X80100000Y-106875000D03*
X60600000Y-78200000D03*
X58950000Y-78200000D03*
D24*
X98350000Y-100555000D03*
X98350000Y-101825000D03*
X98350000Y-103095000D03*
X98350000Y-104365000D03*
X98350000Y-105635000D03*
X98350000Y-106905000D03*
X98350000Y-108175000D03*
X98350000Y-109445000D03*
X107650000Y-109445000D03*
X107650000Y-108175000D03*
X107650000Y-106905000D03*
X107650000Y-105635000D03*
X107650000Y-104365000D03*
X107650000Y-103095000D03*
X107650000Y-101825000D03*
X107650000Y-100555000D03*
D10*
X63500000Y-127125000D03*
X63500000Y-128775000D03*
D25*
X85500000Y-125900000D03*
X85500000Y-131300000D03*
D14*
X73925000Y-108900000D03*
X75575000Y-108900000D03*
X81175000Y-105325000D03*
X82825000Y-105325000D03*
D10*
X101000000Y-143492500D03*
X101000000Y-145142500D03*
D26*
X71725000Y-107200000D03*
X73275000Y-107200000D03*
D22*
X70000000Y-146700000D03*
X70000000Y-139300000D03*
D16*
X65500000Y-122000000D03*
X67400000Y-122000000D03*
D27*
X77750000Y-105725000D03*
X77750000Y-105075000D03*
X77750000Y-104425000D03*
X77750000Y-103775000D03*
X77750000Y-103125000D03*
X77750000Y-102475000D03*
X77750000Y-101825000D03*
X77750000Y-101175000D03*
X77750000Y-100525000D03*
X77750000Y-99875000D03*
X77750000Y-99225000D03*
X77750000Y-98575000D03*
X72025000Y-98575000D03*
X72025000Y-99225000D03*
X72025000Y-99875000D03*
X72025000Y-100525000D03*
X72025000Y-101175000D03*
X72025000Y-101825000D03*
X72025000Y-102475000D03*
X72025000Y-103125000D03*
X72025000Y-103775000D03*
X72025000Y-104425000D03*
X72025000Y-105075000D03*
X72025000Y-105725000D03*
D20*
X104000000Y-148675000D03*
X104000000Y-147100000D03*
D15*
X92825000Y-79600000D03*
X91275000Y-79600000D03*
D17*
X94950000Y-137500000D03*
X93050000Y-137500000D03*
D14*
X74725000Y-110550000D03*
X76375000Y-110550000D03*
D17*
X60900000Y-81600000D03*
X59000000Y-81600000D03*
D28*
X52100000Y-133000000D03*
X54900000Y-133000000D03*
D15*
X108825000Y-79500000D03*
X107275000Y-79500000D03*
D13*
X92875000Y-78050000D03*
X91225000Y-78050000D03*
D20*
X107000000Y-148675000D03*
X107000000Y-147100000D03*
D13*
X76375000Y-78050000D03*
X74725000Y-78050000D03*
D10*
X107000000Y-143562500D03*
X107000000Y-145212500D03*
M02*
